<?xml version="1.0"?>
<svg xmlns="http://www.w3.org/2000/svg" viewBox="0 0 64 64" width="512" height="512"><path d="M58,24H40V6a6,6,0,0,0-6-6H6A6,6,0,0,0,0,6V58a6,6,0,0,0,6,6H58a6,6,0,0,0,6-6V30A6,6,0,0,0,58,24ZM14.08,4H25.92V5H14.08ZM4,6A2,2,0,0,1,6,4h4.08V7a2,2,0,0,0,2,2H27.92a2,2,0,0,0,2-2V4H34a2,2,0,0,1,2,2V24H6a6,6,0,0,0-2,.35ZM60,49.92H59V38.08h1Zm0-15.84H57a2,2,0,0,0-2,2V51.92a2,2,0,0,0,2,2h3V58a2,2,0,0,1-2,2H6a2,2,0,0,1-2-2V30a2,2,0,0,1,2-2H58a2,2,0,0,1,2,2Z"/><path d="M48.7,15.1a2,2,0,0,0,.22,2.82l5,4.27a2,2,0,0,0,1.3.48,2,2,0,0,0,1.52-.7L61,17a2,2,0,1,0-3-2.6l-1,1.19A14,14,0,0,0,43,3a2,2,0,0,0,0,4,10,10,0,0,1,10,9.11l-1.44-1.23A2,2,0,0,0,48.7,15.1Z"/></svg>
